<svg width="48" height="51" viewBox="0 0 48 51" fill="none" xmlns="http://www.w3.org/2000/svg">
<path d="M14.2 27.0022C13.7737 27.0022 13.3558 26.8832 12.9926 26.6585C12.6295 26.4338 12.3353 26.1122 12.1429 25.7293C11.9504 25.3464 11.8672 24.9174 11.9024 24.4897C11.9377 24.0621 12.09 23.6527 12.3425 23.307L28.6045 0.936271C28.9219 0.50639 29.3773 0.200272 29.8934 0.0698486C30.4094 -0.0605752 30.9544 -0.0072714 31.4359 0.22071C31.9174 0.448692 32.3057 0.837309 32.535 1.32065C32.7643 1.804 32.8204 2.3523 32.6939 2.87255L28.9642 17.7568H45.5639C45.8771 17.739 46.1906 17.7857 46.4853 17.8941C46.7799 18.0025 47.0495 18.1702 47.2774 18.3871C47.5054 18.604 47.687 18.8655 47.8112 19.1555C47.9353 19.4455 47.9993 19.7579 47.9993 20.0737C47.9993 20.3894 47.9353 20.7019 47.8112 20.9919C47.687 21.2819 47.5054 21.5434 47.2774 21.7602C47.0495 21.9771 46.7799 22.1449 46.4853 22.2533C46.1906 22.3617 45.8771 22.4084 45.5639 22.3906H26.0275C25.6802 22.3854 25.3385 22.3013 25.028 22.1445C24.7175 21.9877 24.4463 21.7623 24.2345 21.4851C24.0227 21.208 23.8758 20.8862 23.8049 20.5439C23.734 20.2016 23.7409 19.8476 23.825 19.5083L25.3888 13.2561L16.0574 26.0636C15.8425 26.3555 15.5624 26.5925 15.2397 26.7555C14.9171 26.9186 14.561 27.003 14.2 27.0022V27.0022Z" fill="#C9002C"/>
<path d="M17.2332 50.6425C16.8854 50.6387 16.543 50.5555 16.2318 50.3992C15.9205 50.2428 15.6486 50.0174 15.4365 49.7398C15.2245 49.4623 15.0777 49.14 15.0074 48.797C14.9371 48.4541 14.9451 48.0996 15.0307 47.7603L18.7603 32.876H2.17526C1.5873 32.8426 1.03435 32.5839 0.629856 32.1531C0.225361 31.7223 0 31.1519 0 30.5591C0 29.9664 0.225361 29.396 0.629856 28.9652C1.03435 28.5344 1.5873 28.2757 2.17526 28.2423H21.7116C22.059 28.2474 22.4007 28.3316 22.7112 28.4884C23.0217 28.6451 23.2929 28.8705 23.5047 29.1477C23.7165 29.4249 23.8633 29.7466 23.9342 30.0889C24.0052 30.4312 23.9983 30.7852 23.9142 31.1245L22.3504 37.3768L31.6597 24.5914C31.8328 24.3314 32.0564 24.1093 32.3169 23.9384C32.5775 23.7676 32.8697 23.6517 33.176 23.5975C33.4823 23.5433 33.7963 23.5521 34.0991 23.6233C34.4019 23.6945 34.6873 23.8265 34.938 24.0116C35.1888 24.1967 35.3998 24.431 35.5583 24.7003C35.7168 24.9696 35.8195 25.2684 35.8603 25.5787C35.9011 25.889 35.8791 26.2044 35.7956 26.5059C35.7122 26.8074 35.569 27.0889 35.3747 27.3332L19.0613 49.7187C18.8477 50.0039 18.5717 50.2357 18.2546 50.3959C17.9375 50.5561 17.588 50.6405 17.2332 50.6425V50.6425Z" fill="#C9002C"/>
</svg>
