<svg width="29" height="29" viewBox="0 0 29 29" fill="none" xmlns="http://www.w3.org/2000/svg">
<path fill-rule="evenodd" clip-rule="evenodd" d="M7.0369 20.5417H21.9634C23.1803 20.5417 24.1668 19.5552 24.1668 18.3383C24.1668 17.5338 23.7283 16.7932 23.0229 16.4063L22.1661 15.9363C21.9039 15.7926 21.7232 15.5352 21.6773 15.2397L20.696 8.93155C20.2209 5.87738 17.5911 3.625 14.5002 3.625C11.4093 3.625 8.77942 5.87738 8.30432 8.93155L7.32306 15.2397C7.2771 15.5352 7.09652 15.7926 6.83431 15.9363L5.97744 16.4063C5.272 16.7932 4.8335 17.5338 4.8335 18.3383C4.8335 19.5552 5.81999 20.5417 7.0369 20.5417Z" stroke="#6E788F" stroke-width="2" stroke-linecap="round"/>
<path d="M16.9168 25.375C16.3232 26.1166 15.4604 26.5833 14.5002 26.5833C13.5399 26.5833 12.6772 26.1166 12.0835 25.375" stroke="#6E788F" stroke-width="2" stroke-linecap="round"/>
</svg>
