<svg width="18" height="16" viewBox="0 0 18 16" fill="none" xmlns="http://www.w3.org/2000/svg">
<path fill-rule="evenodd" clip-rule="evenodd" d="M1 5C1 3.89543 1.89543 3 3 3H5L5.44721 2.10557C5.786 1.428 6.47852 1 7.2361 1H10.7639C11.5215 1 12.214 1.428 12.5528 2.10557L13 3H15C16.1046 3 17 3.89543 17 5V13C17 14.1046 16.1046 15 15 15H3C1.89543 15 1 14.1046 1 13V5Z" stroke="#B7BBC7" stroke-width="2" stroke-linecap="round"/>
<path fill-rule="evenodd" clip-rule="evenodd" d="M12 9C12 10.6569 10.6569 12 9 12C7.3431 12 6 10.6569 6 9C6 7.3431 7.3431 6 9 6C10.6569 6 12 7.3431 12 9Z" stroke="#B7BBC7" stroke-width="2" stroke-linecap="round"/>
</svg>
