<svg width="13" height="13" viewBox="0 0 13 13" fill="none" xmlns="http://www.w3.org/2000/svg">
<path fill-rule="evenodd" clip-rule="evenodd" d="M9.20924 0.250122H3.79111C1.66763 0.250122 0.250488 1.77049 0.250488 3.94762V9.05262C0.250488 11.2318 1.66384 12.7501 3.79111 12.7501H9.20861C11.3365 12.7501 12.7505 11.2318 12.7505 9.05262V3.94762C12.7505 1.76856 11.3366 0.250122 9.20924 0.250122ZM3.79111 1.18762H9.20924C10.8033 1.18762 11.813 2.27197 11.813 3.94762V9.05262C11.813 10.7283 10.8032 11.8126 9.20861 11.8126H3.79111C2.19721 11.8126 1.18799 10.7284 1.18799 9.05262V3.94762C1.18799 2.27411 2.2007 1.18762 3.79111 1.18762ZM4.52541 4.87387C3.62782 4.87387 2.89978 5.60245 2.89978 6.50012C2.89978 7.39779 3.62782 8.12637 4.52541 8.12637C5.2605 8.12637 5.88176 7.63834 6.08305 6.96886L7.39497 6.96881V7.65731L7.39925 7.72092C7.43029 7.94971 7.62641 8.12606 7.86372 8.12606C8.1226 8.12606 8.33247 7.91619 8.33247 7.65731V6.96878L9.16275 6.96875L9.16294 7.65762L9.16722 7.72123C9.19826 7.95002 9.39438 8.12637 9.63169 8.12637C9.89057 8.12637 10.1004 7.9165 10.1004 7.65762V6.50012L10.0962 6.43651C10.0651 6.20772 9.869 6.03137 9.63169 6.03137H7.88095C7.87523 6.03116 7.86949 6.03106 7.86372 6.03106C7.85795 6.03106 7.85221 6.03116 7.84649 6.03137H6.08304C5.88175 5.3619 5.2605 4.87387 4.52541 4.87387ZM4.52541 5.81137C4.90564 5.81137 5.21416 6.12 5.21416 6.50012C5.21416 6.88024 4.90564 7.18887 4.52541 7.18887C4.14574 7.18887 3.83728 6.88018 3.83728 6.50012C3.83728 6.12006 4.14574 5.81137 4.52541 5.81137Z" fill="#6E788F"/>
</svg>
