<svg width="29" height="29" viewBox="0 0 29 29" fill="none" xmlns="http://www.w3.org/2000/svg">
<path d="M14.5 18.125C16.502 18.125 18.125 16.502 18.125 14.5C18.125 12.498 16.502 10.875 14.5 10.875C12.498 10.875 10.875 12.498 10.875 14.5C10.875 16.502 12.498 18.125 14.5 18.125Z" stroke="#6E788F" stroke-width="2" stroke-linecap="round"/>
<path fill-rule="evenodd" clip-rule="evenodd" d="M12.1665 4.06336C12.9473 1.86772 16.0524 1.86772 16.8331 4.06334C17.3249 5.44604 18.9043 6.10026 20.2298 5.47024C22.3343 4.4698 24.53 6.66543 23.5296 8.77008C22.8996 10.0955 23.5538 11.6749 24.9365 12.1667C27.1321 12.9474 27.1321 16.0525 24.9365 16.8333C23.5538 17.325 22.8996 18.9045 23.5296 20.2299C24.53 22.3344 22.3343 24.5301 20.2298 23.5297C18.9043 22.8997 17.3249 23.5539 16.8331 24.9366C16.0524 27.1322 12.9473 27.1322 12.1665 24.9366C11.6748 23.5539 10.0954 22.8997 8.76996 23.5297C6.66531 24.5301 4.46968 22.3344 5.47012 20.2299C6.10013 18.9045 5.44592 17.325 4.06322 16.8333C1.8676 16.0525 1.8676 12.9474 4.06323 12.1667C5.44592 11.6749 6.10013 10.0955 5.47012 8.77008C4.46968 6.66543 6.66531 4.4698 8.76996 5.47024C10.0954 6.10026 11.6748 5.44604 12.1665 4.06336Z" stroke="#6E788F" stroke-width="2" stroke-linecap="round"/>
</svg>
