<svg width="18" height="19" viewBox="0 0 18 19" fill="none" xmlns="http://www.w3.org/2000/svg">
<path d="M6.71643 0H1.34329C0.601434 0 0 0.608395 0 1.35883V6.79417C0 7.54461 0.601434 8.153 1.34329 8.153H6.71643C7.45828 8.153 8.05972 7.54461 8.05972 6.79417V1.35883C8.05972 0.608395 7.45828 0 6.71643 0Z" fill="white"/>
<path d="M6.71643 10.4355H1.34329C0.601434 10.4355 0 11.0439 0 11.7944V17.2297C0 17.9802 0.601434 18.5886 1.34329 18.5886H6.71643C7.45828 18.5886 8.05972 17.9802 8.05972 17.2297V11.7944C8.05972 11.0439 7.45828 10.4355 6.71643 10.4355Z" fill="white"/>
<path d="M16.6559 0H11.2827C10.5409 0 9.93945 0.608395 9.93945 1.35883V6.79417C9.93945 7.54461 10.5409 8.153 11.2827 8.153H16.6559C17.3977 8.153 17.9992 7.54461 17.9992 6.79417V1.35883C17.9992 0.608395 17.3977 0 16.6559 0Z" fill="white"/>
<path d="M16.6559 10.4355H11.2827C10.5409 10.4355 9.93945 11.0439 9.93945 11.7944V17.2297C9.93945 17.9802 10.5409 18.5886 11.2827 18.5886H16.6559C17.3977 18.5886 17.9992 17.9802 17.9992 17.2297V11.7944C17.9992 11.0439 17.3977 10.4355 16.6559 10.4355Z" fill="white"/>
</svg>
