<svg width="24" height="24" viewBox="0 0 24 24" fill="none" xmlns="http://www.w3.org/2000/svg">
<path d="M10.132 17.3587C8.86287 16.9194 7.79076 16.0441 7.10638 14.8886C6.422 13.7331 6.16973 12.3722 6.39445 11.0482C6.61918 9.72415 7.30631 8.52275 8.33362 7.65774C9.36093 6.79274 10.6618 6.32022 12.0048 6.32424C12.1984 6.32479 12.3919 6.33509 12.5844 6.35511L12.4747 7.415C11.3597 7.3131 10.2458 7.62076 9.34119 8.28045C8.43657 8.94014 7.80318 9.90671 7.55941 10.9995C7.31564 12.0922 7.47819 13.2363 8.01667 14.218C8.55515 15.1996 9.4327 15.9515 10.4853 16.3331L10.132 17.3587Z" fill="#EB0029"/>
<path d="M12.0041 17.675C11.8024 17.6753 11.6009 17.6649 11.4004 17.6441L11.5136 16.5842C11.6765 16.602 11.8402 16.6111 12.0041 16.6117C13.0898 16.6142 14.1415 16.2333 14.9736 15.536C15.8058 14.8387 16.3649 13.8699 16.5524 12.8005C16.7398 11.7311 16.5436 10.6299 15.9982 9.69115C15.4528 8.75238 14.5934 8.0364 13.5716 7.66954L13.9352 6.66797C15.1896 7.12265 16.2436 8.0049 16.912 9.15968C17.5804 10.3145 17.8204 11.6679 17.5898 12.9821C17.3593 14.2962 16.6729 15.4871 15.6513 16.3454C14.6297 17.2037 13.3383 17.6745 12.0041 17.675Z" fill="#EB0029"/>
<path d="M9.6051 20.0933C9.51093 20.0931 9.41813 20.0707 9.33413 20.0282C9.20593 19.965 9.10482 19.8578 9.04937 19.7261C8.99392 19.5944 8.98785 19.4471 9.03228 19.3113L10.7473 13.295L8.72358 12.2351C8.649 12.1956 8.58372 12.1406 8.5321 12.0738C8.48048 12.007 8.4437 11.9299 8.42422 11.8478C8.40474 11.7657 8.40301 11.6803 8.41914 11.5975C8.43528 11.5146 8.4689 11.4361 8.51778 11.3673L13.9098 4.16423C13.9963 4.06152 14.1151 3.9912 14.2468 3.96475C14.3784 3.9383 14.5152 3.95729 14.6346 4.01862C14.7541 4.07994 14.8492 4.17998 14.9045 4.30238C14.9597 4.42477 14.9718 4.56229 14.9388 4.69245L13.3473 10.6607L15.2647 11.7172C15.3378 11.7578 15.4015 11.8133 15.4518 11.8801C15.5021 11.9469 15.5378 12.0236 15.5565 12.1051C15.5753 12.1866 15.5767 12.2711 15.5607 12.3532C15.5447 12.4353 15.5116 12.5131 15.4636 12.5815L10.0956 19.8498C10.04 19.9275 9.96624 19.9903 9.88072 20.0327C9.79519 20.0752 9.70055 20.096 9.6051 20.0933ZM10.0613 19.5994V19.6234V19.5994ZM9.73544 11.5491L12.0336 12.7531L10.7885 17.1195L14.2768 12.3929L12.0953 11.189L13.3027 6.78478L9.73544 11.5491ZM13.9613 4.37689V4.4009V4.37689Z" fill="#1D1D1B"/>
</svg>
