<svg id="Capa_2" data-name="Capa 2" xmlns="http://www.w3.org/2000/svg" viewBox="0 0 69.97 69.97"><defs><style>.cls-1{fill:#010101;}.cls-2{fill:#eb0029;}.cls-3{fill:#fff;}</style></defs><title>Iconos_SPF</title><rect class="cls-1" width="69.97" height="69.97"/><path class="cls-2" d="M29.54,50.61A16.54,16.54,0,0,1,35,18.44a16.8,16.8,0,0,1,1.69.09l-.32,3.09a13.43,13.43,0,0,0-5.8,26Z"/><path class="cls-2" d="M35,51.53a16.8,16.8,0,0,1-1.76-.09l.33-3.09a13.61,13.61,0,0,0,1.43.08,13.43,13.43,0,0,0,4.57-26.07l1.06-2.92A16.54,16.54,0,0,1,35,51.53Z"/><path class="cls-3" d="M28,58.58a1.76,1.76,0,0,1-.79-.19,1.73,1.73,0,0,1-.88-2.09l5-17.54-5.9-3.09a1.73,1.73,0,0,1-.6-2.53l0,0,15.72-21a1.73,1.73,0,0,1,3,1.54L38.91,31.08l5.59,3.08a1.74,1.74,0,0,1,.58,2.52L29.43,57.87A1.7,1.7,0,0,1,28,58.58Zm1.33-1.44,0,.07ZM26.94,56l0,0Zm1.44-22.33,6.7,3.51L31.45,49.91,41.62,36.13l-6.36-3.51,3.52-12.84Zm-1.44-.76h0Zm16.21-19,0,0ZM40.7,12.76l0,.07Z"/></svg>