<svg id="Capa_2" data-name="Capa 2" xmlns="http://www.w3.org/2000/svg" viewBox="0 0 69.97 69.97"><defs><style>.cls-1{fill:#010101;}.cls-2{fill:#fff;}.cls-3{fill:#eb0029;}</style></defs><title>Iconos_SPF</title><rect class="cls-1" width="69.97" height="69.97"/><path class="cls-2" d="M26.58,58.58a1.71,1.71,0,0,1-1.67-1.34L20.36,34a.44.44,0,0,0-.82-.12l-3.43,6.66a.45.45,0,0,1-.4.25H6V37.68h7.85a.45.45,0,0,0,.4-.25l5-9.69a1.71,1.71,0,0,1,3.18.42l3.48,18.28a.44.44,0,0,0,.86,0l4.66-33.57a1.7,1.7,0,0,1,1.69-1.46h0a1.7,1.7,0,0,1,1.68,1.45l3.37,26.47a.44.44,0,0,0,.84.11L42,31.78a1.71,1.71,0,0,1,3.17.1L50.16,47l4.22-8.87a.45.45,0,0,1,.41-.26H64V41H56.75a.45.45,0,0,0-.41.26L51.45,51.52a1.71,1.71,0,0,1-3.15-.16L43.79,37.53a.44.44,0,0,0-.82,0l-3.79,8.79a1.71,1.71,0,0,1-3.25-.42L33.43,24a.44.44,0,0,0-.87,0L28.27,57.12a1.71,1.71,0,0,1-1.64,1.46Z"/><circle class="cls-3" cx="64.01" cy="39.39" r="3.53"/><circle class="cls-3" cx="5.96" cy="39.39" r="3.53"/></svg>