<svg width="24" height="24" viewBox="0 0 24 24" fill="none" xmlns="http://www.w3.org/2000/svg">
<path d="M9.11762 20.0936C8.98408 20.0936 8.85452 20.0481 8.75037 19.9645C8.64621 19.8809 8.5737 19.7643 8.5448 19.6339L6.98413 11.6625C6.97802 11.632 6.96262 11.6041 6.94004 11.5827C6.91746 11.5613 6.8888 11.5474 6.858 11.5428C6.8272 11.5383 6.79577 11.5435 6.76799 11.5575C6.74022 11.5716 6.71747 11.5939 6.70287 11.6214L5.52637 13.9058C5.51367 13.9314 5.49412 13.9529 5.4699 13.9681C5.44568 13.9832 5.41773 13.9913 5.38916 13.9915H2.05859V12.9248H4.75118C4.77974 12.9246 4.80769 12.9165 4.83191 12.9013C4.85614 12.8862 4.87568 12.8646 4.88838 12.839L6.6034 9.51532C6.65934 9.40933 6.7464 9.32302 6.85287 9.268C6.95934 9.21298 7.08012 9.1919 7.19893 9.20759C7.31775 9.22328 7.42891 9.275 7.51744 9.35577C7.60598 9.43655 7.66765 9.5425 7.69415 9.65939L8.88781 15.9295C8.89511 15.9632 8.91373 15.9934 8.94056 16.015C8.9674 16.0366 9.00083 16.0484 9.0353 16.0484C9.06977 16.0484 9.1032 16.0366 9.13003 16.015C9.15686 15.9934 9.17548 15.9632 9.18279 15.9295L10.7812 4.41485C10.8011 4.27546 10.8707 4.14797 10.9773 4.05592C11.0838 3.96387 11.2201 3.91349 11.3609 3.91407C11.5006 3.91419 11.6356 3.96447 11.7413 4.05575C11.8471 4.14703 11.9166 4.27324 11.9371 4.41142L13.093 13.4907C13.0978 13.5233 13.113 13.5534 13.1364 13.5766C13.1598 13.5997 13.1902 13.6145 13.2228 13.6188C13.2554 13.623 13.2886 13.6165 13.3172 13.6002C13.3457 13.5839 13.3682 13.5587 13.3812 13.5285L14.4067 10.9011C14.4539 10.7941 14.5319 10.7036 14.6309 10.6413C14.7298 10.579 14.8451 10.5476 14.962 10.5513C15.0788 10.555 15.1919 10.5935 15.2868 10.662C15.3816 10.7304 15.4538 10.8256 15.4941 10.9354L17.2057 16.1216L18.6531 13.0791C18.6656 13.0524 18.6855 13.0298 18.7104 13.014C18.7353 12.9981 18.7643 12.9898 18.7938 12.99H21.9528V14.0636H19.4661C19.4365 14.0634 19.4076 14.0718 19.3827 14.0876C19.3578 14.1034 19.3379 14.126 19.3254 14.1527L17.6481 17.672C17.5981 17.7762 17.5184 17.8632 17.419 17.9223C17.3197 17.9813 17.2051 18.0097 17.0897 18.0038C16.9742 17.998 16.8631 17.9581 16.7702 17.8893C16.6774 17.8205 16.6069 17.7258 16.5677 17.6171L15.0207 12.8733C15.0097 12.845 14.9904 12.8207 14.9653 12.8035C14.9402 12.7864 14.9105 12.7772 14.8801 12.7772C14.8497 12.7772 14.82 12.7864 14.7949 12.8035C14.7698 12.8207 14.7505 12.845 14.7395 12.8733L13.4395 15.8883C13.3881 16.0037 13.3009 16.0994 13.1909 16.1613C13.0808 16.2231 12.9537 16.2478 12.8284 16.2316C12.7032 16.2154 12.5865 16.1592 12.4958 16.0714C12.405 15.9836 12.345 15.8689 12.3247 15.7443L11.4672 8.23249C11.4618 8.1968 11.4437 8.16425 11.4164 8.14072C11.389 8.11719 11.3541 8.10426 11.318 8.10426C11.2819 8.10426 11.247 8.11719 11.2196 8.14072C11.1922 8.16425 11.1742 8.1968 11.1688 8.23249L9.6973 19.5928C9.67723 19.729 9.60987 19.8538 9.50703 19.9454C9.40418 20.0369 9.2724 20.0894 9.13477 20.0936H9.11762Z" fill="#1D1D1B"/>
<path d="M21.9549 14.7224C22.6237 14.7224 23.1657 14.1803 23.1657 13.5116C23.1657 12.8429 22.6237 12.3008 21.9549 12.3008C21.2862 12.3008 20.7441 12.8429 20.7441 13.5116C20.7441 14.1803 21.2862 14.7224 21.9549 14.7224Z" fill="#EB0029"/>
<path d="M2.04479 14.7224C2.7135 14.7224 3.25559 14.1803 3.25559 13.5116C3.25559 12.8429 2.7135 12.3008 2.04479 12.3008C1.37608 12.3008 0.833984 12.8429 0.833984 13.5116C0.833984 14.1803 1.37608 14.7224 2.04479 14.7224Z" fill="#EB0029"/>
</svg>
