<svg width="24" height="24" viewBox="0 0 24 24" fill="none" xmlns="http://www.w3.org/2000/svg">
<path d="M7.36066 6.47306C7.36066 6.17944 7.1234 5.94141 6.83072 5.94141C6.53804 5.94141 6.30078 6.17944 6.30078 6.47306V12.0949C6.30078 12.3885 6.53804 12.6266 6.83072 12.6266C7.1234 12.6266 7.36066 12.3885 7.36066 12.0949V6.47306Z" fill="#1D1D1B"/>
<path d="M4.93389 13.2383C4.67843 13.0914 4.35272 13.1789 4.20638 13.4335C4.06004 13.6881 4.14849 14.0135 4.40395 14.1604L9.29495 16.9713C9.5504 17.1181 9.87612 17.0307 10.0225 16.7761C10.1688 16.5214 10.0803 16.196 9.82489 16.0492L4.93389 13.2383Z" fill="#EB0029"/>
<path d="M17.8841 11.6762C17.8841 11.3826 17.6468 11.1445 17.3542 11.1445C17.0615 11.1445 16.8242 11.3826 16.8242 11.6762V17.298C16.8242 17.5917 17.0615 17.8297 17.3542 17.8297C17.6468 17.8297 17.8841 17.5917 17.8841 17.298V11.6762Z" fill="#EB0029"/>
<path d="M14.3399 16.0443L9.44887 18.8553C9.19342 19.0021 9.10496 19.3275 9.2513 19.5821C9.39764 19.8368 9.72336 19.9242 9.97881 19.7774L14.8698 16.9664C15.1253 16.8196 15.2137 16.4942 15.0674 16.2396C14.921 15.9849 14.5953 15.8975 14.3399 16.0443Z" fill="#1D1D1B"/>
<path d="M14.6685 7.0096C14.4094 6.87161 14.0877 6.96918 13.9502 7.22753C13.8127 7.48588 13.9113 7.80717 14.1705 7.94516L19.1329 10.587C19.3921 10.725 19.7137 10.6275 19.8512 10.3691C19.9887 10.1108 19.8901 9.78947 19.6309 9.65149L14.6685 7.0096Z" fill="#1D1D1B"/>
<path d="M13.7422 4.30529L8.97255 7.28108C8.72343 7.4365 8.64707 7.7638 8.802 8.01211C8.95692 8.26043 9.28446 8.33573 9.53358 8.1803L14.3032 5.20451C14.5524 5.04909 14.6287 4.72179 14.4738 4.47348C14.3189 4.22517 13.9913 4.14987 13.7422 4.30529Z" fill="#EB0029"/>
</svg>
