<svg id="Capa_2" data-name="Capa 2" xmlns="http://www.w3.org/2000/svg" viewBox="0 0 69.97 69.97"><defs><style>.cls-1{fill:#010101;}.cls-2{fill:#eb0029;}.cls-3{fill:#fff;}</style></defs><title>Iconos_SPF</title><rect class="cls-1" width="69.97" height="69.97"/><path class="cls-2" d="M28,55.51a1.28,1.28,0,0,1-1.75.47L11.69,47.56A1.44,1.44,0,0,1,11,46.32v-18A1.44,1.44,0,0,1,11.69,27l15.62-9a1.43,1.43,0,0,1,1.43,0l15.62,9a1.43,1.43,0,0,1,.72,1.24V38.81a1.28,1.28,0,0,1-1.28,1.28h0a1.28,1.28,0,0,1-1.28-1.28V28.94L28,20.58,13.54,28.94V45.67l14,8.09A1.28,1.28,0,0,1,28,55.51Zm.57-35.26h0Z"/><path class="cls-3" d="M41.95,52.14a1.43,1.43,0,0,1-.72-.19l-15.62-9a1.44,1.44,0,0,1-.72-1.24V30.93a1.28,1.28,0,0,1,1.28-1.28h0a1.28,1.28,0,0,1,1.28,1.28V41l14.48,8.36L56.43,41V24.31l-14-8.09a1.28,1.28,0,0,1-.47-1.75h0A1.28,1.28,0,0,1,43.7,14l14.58,8.42A1.44,1.44,0,0,1,59,23.65v18a1.44,1.44,0,0,1-.72,1.24l-15.62,9A1.43,1.43,0,0,1,41.95,52.14Z"/></svg>