<svg width="24" height="24" viewBox="0 0 24 24" fill="none" xmlns="http://www.w3.org/2000/svg">
<path d="M9.60331 18.3502C9.57452 18.4003 9.53615 18.4442 9.49039 18.4794C9.44462 18.5145 9.39237 18.5404 9.33661 18.5553C9.28086 18.5703 9.2227 18.5741 9.16546 18.5666C9.10822 18.5591 9.05303 18.5403 9.00305 18.5115L4.00891 15.6234C3.93609 15.5789 3.87602 15.5164 3.83454 15.4419C3.79307 15.3673 3.7716 15.2833 3.77224 15.198V9.02396C3.7673 8.93465 3.78672 8.84568 3.8284 8.76655C3.87008 8.68741 3.93247 8.62108 4.00891 8.57463L9.36663 5.48759C9.4412 5.44454 9.52578 5.42188 9.61188 5.42188C9.69798 5.42188 9.78257 5.44454 9.85713 5.48759L15.2149 8.57463C15.2898 8.6175 15.3521 8.67941 15.3955 8.7541C15.4389 8.82878 15.4617 8.91359 15.4618 8.99995V12.6221C15.4618 12.6797 15.4505 12.7368 15.4284 12.7901C15.4063 12.8434 15.374 12.8918 15.3332 12.9325C15.2925 12.9733 15.2441 13.0056 15.1908 13.0277C15.1375 13.0498 15.0804 13.0611 15.0228 13.0611V13.0611C14.9651 13.0611 14.908 13.0498 14.8548 13.0277C14.8015 13.0056 14.7531 12.9733 14.7123 12.9325C14.6716 12.8918 14.6392 12.8434 14.6171 12.7901C14.5951 12.7368 14.5837 12.6797 14.5837 12.6221V9.23662L9.60331 6.36911L4.64347 9.23662V14.9751L9.44553 17.75C9.54601 17.8087 9.61908 17.9049 9.64866 18.0175C9.67825 18.13 9.66193 18.2497 9.60331 18.3502Z" fill="#EB0029"/>
<path d="M14.3888 18.5727C14.3021 18.5732 14.2169 18.5507 14.1418 18.5076L8.78407 15.4205C8.70934 15.3774 8.64722 15.3154 8.60389 15.2408C8.56056 15.1662 8.53753 15.0815 8.53711 14.9952V11.2976C8.53711 11.1812 8.58337 11.0695 8.6657 10.9872C8.74804 10.9048 8.85971 10.8586 8.97615 10.8586V10.8586C9.0926 10.8586 9.20427 10.9048 9.28661 10.9872C9.36894 11.0695 9.4152 11.1812 9.4152 11.2976V14.7482L14.3888 17.6295L19.3555 14.7482V9.0235L14.5534 6.24859C14.5034 6.21981 14.4595 6.18144 14.4243 6.13567C14.3891 6.08991 14.3633 6.03766 14.3483 5.9819C14.3333 5.92615 14.3295 5.86799 14.337 5.81075C14.3446 5.75351 14.3633 5.69832 14.3922 5.64834V5.64834C14.4503 5.5482 14.5456 5.47507 14.6574 5.44488C14.7692 5.41469 14.8884 5.42987 14.989 5.48713L19.99 8.37522C20.0647 8.41837 20.1269 8.48034 20.1702 8.55496C20.2135 8.62958 20.2366 8.71426 20.237 8.80055V14.9746C20.2366 15.0609 20.2135 15.1456 20.1702 15.2202C20.1269 15.2948 20.0647 15.3568 19.99 15.3999L14.6323 18.5213C14.5569 18.5591 14.473 18.5768 14.3888 18.5727V18.5727Z" fill="#1D1D1B"/>
</svg>
