<svg width="24" height="24" viewBox="0 0 24 24" fill="none" xmlns="http://www.w3.org/2000/svg">
<path d="M10.0912 19.3582L4.86044 16.3363C4.76861 16.2829 4.6924 16.2063 4.63943 16.1142C4.58647 16.0221 4.55859 15.9177 4.55859 15.8115V8.16937C4.55894 8.06279 4.58733 7.95819 4.64092 7.86607C4.69451 7.77395 4.7714 7.69755 4.86387 7.64457L11.0379 4.08076C11.1631 4.00859 11.3117 3.98901 11.4512 4.02631C11.5908 4.06361 11.7098 4.15473 11.7823 4.2797C11.8544 4.40482 11.874 4.55346 11.8367 4.693C11.7994 4.83254 11.7083 4.95159 11.5833 5.02402L5.64935 8.45406V15.5337L10.6332 18.4115L10.0912 19.3582Z" fill="#1D1D1B"/>
<path d="M12.2175 19.7067C12.1453 19.5816 12.1257 19.4329 12.163 19.2934C12.2003 19.1539 12.2915 19.0348 12.4164 18.9624L18.3504 15.5323V8.4493L13.4557 5.62295L14.0011 4.67969L19.1462 7.64667C19.2382 7.69983 19.3146 7.77635 19.3676 7.8685C19.4206 7.96065 19.4484 8.06516 19.448 8.17147V15.8136C19.4474 15.9193 19.4192 16.0229 19.3663 16.1144C19.3134 16.2058 19.2375 16.2818 19.1462 16.335L12.9652 19.8953C12.841 19.9695 12.6925 19.9912 12.5523 19.9559C12.4121 19.9205 12.2916 19.8309 12.2175 19.7067Z" fill="#EB0029"/>
<path d="M13.8293 7.57073C13.7577 7.56852 13.6872 7.5522 13.6218 7.52273C13.5565 7.49325 13.4976 7.45119 13.4486 7.39895C13.3995 7.3467 13.3613 7.2853 13.3359 7.21826C13.3106 7.15121 13.2988 7.07984 13.3011 7.00821L13.3765 5.1697C13.3783 5.05744 13.4113 4.94789 13.4719 4.85337C13.5325 4.75884 13.6182 4.68309 13.7195 4.63462L15.3454 3.94861C15.4786 3.89277 15.6286 3.89211 15.7624 3.94678C15.8962 4.00144 16.0028 4.10696 16.0588 4.24016C16.1153 4.37216 16.1174 4.52111 16.0648 4.65467C16.0121 4.78824 15.9089 4.89565 15.7775 4.95361L14.4433 5.51957L14.4055 7.04251C14.4034 7.11535 14.3866 7.18701 14.3563 7.25327C14.3259 7.31952 14.2826 7.37903 14.2289 7.42827C14.1752 7.47751 14.1122 7.51549 14.0435 7.53996C13.9749 7.56443 13.902 7.57489 13.8293 7.57073Z" fill="#EB0029"/>
<path d="M8.06436 19.7615C8.00832 19.6287 8.00717 19.479 8.06116 19.3453C8.11516 19.2116 8.2199 19.1048 8.35249 19.0481L9.67305 18.489L9.7245 16.9798C9.73249 16.8369 9.7963 16.7029 9.90217 16.6067C10.008 16.5104 10.1475 16.4596 10.2905 16.4653C10.3621 16.4675 10.4326 16.4838 10.4979 16.5133C10.5632 16.5427 10.6221 16.5848 10.6712 16.6371C10.7202 16.6893 10.7585 16.7507 10.7838 16.8177C10.8091 16.8848 10.821 16.9562 10.8187 17.0278L10.7569 18.8423C10.7526 18.9579 10.7154 19.0699 10.6499 19.1653C10.5843 19.2606 10.4929 19.3354 10.3865 19.3808L8.78124 20.0668C8.71421 20.0946 8.64231 20.1087 8.56975 20.1084C8.49718 20.1081 8.42542 20.0932 8.35866 20.0648C8.29189 20.0364 8.23148 19.9949 8.18094 19.9428C8.13041 19.8908 8.09078 19.8291 8.06436 19.7615Z" fill="#1D1D1B"/>
</svg>
