<svg id="Capa_2" data-name="Capa 2" xmlns="http://www.w3.org/2000/svg" viewBox="0 0 69.97 69.97"><defs><style>.cls-1{fill:#010101;}.cls-2{fill:#fff;}.cls-3{fill:#eb0029;}</style></defs><title>Iconos_SPF</title><rect class="cls-1" width="69.97" height="69.97"/><path class="cls-2" d="M29.42,56.44,14.17,47.63a1.77,1.77,0,0,1-.88-1.53V23.82a1.77,1.77,0,0,1,.89-1.53l18-10.39a1.59,1.59,0,0,1,2.17.58h0a1.59,1.59,0,0,1-.58,2.17l-17.3,10V45.29L31,53.68ZM15.77,25h0Z"/><path class="cls-3" d="M35.62,57.45h0a1.59,1.59,0,0,1,.58-2.17l17.3-10V24.63L39.23,16.39l1.59-2.75,15,8.65a1.76,1.76,0,0,1,.88,1.53V46.1a1.77,1.77,0,0,1-.88,1.52L37.8,58A1.59,1.59,0,0,1,35.62,57.45ZM54.21,25h0Z"/><path class="cls-3" d="M40.32,22.08h0a1.59,1.59,0,0,1-1.54-1.64L39,15.08A1.76,1.76,0,0,1,40,13.52l4.74-2a1.59,1.59,0,0,1,2.08.85h0A1.59,1.59,0,0,1,46,14.45l-3.89,1.65L42,20.54A1.59,1.59,0,0,1,40.32,22.08Zm1.82-6.9h0Z"/><path class="cls-2" d="M23.51,57.61h0a1.59,1.59,0,0,1,.84-2.08L28.2,53.9l.15-4.4A1.59,1.59,0,0,1,30,48h0a1.59,1.59,0,0,1,1.54,1.64l-.18,5.29a1.78,1.78,0,0,1-1.08,1.57l-4.68,2A1.59,1.59,0,0,1,23.51,57.61Zm4.66-2.82h0Z"/></svg>