<svg id="Capa_2" data-name="Capa 2" xmlns="http://www.w3.org/2000/svg" viewBox="0 0 69.97 69.97"><defs><style>.cls-1{fill:#010101;}.cls-2{fill:#eb0029;}.cls-3{fill:#fff;}</style></defs><title>Iconos_SPF</title><rect class="cls-1" width="69.97" height="69.97"/><path class="cls-2" d="M25.3,46H5.78a1.42,1.42,0,0,1-1.21-2.17L21.44,16.44h0a1.42,1.42,0,0,1,2.42,0l9.82,15.92ZM7.83,43.39h16l6.8-11-8-13Zm15.79-25.6h0Z"/><path class="cls-3" d="M64.19,54.39H19.82a1.42,1.42,0,0,1-1.21-2.17h0l22.18-36A1.39,1.39,0,0,1,42,15.58a1.42,1.42,0,0,1,1.21.68l22.18,36a1.42,1.42,0,0,1-1.21,2.17Zm-43.4-.83h0Zm1.07-1.74H62.14L42,19.18ZM41,17.6h0Z"/></svg>