<svg width="24" height="24" viewBox="0 0 24 24" fill="none" xmlns="http://www.w3.org/2000/svg">
<path d="M8.6781 15.7776H1.98266C1.89568 15.7779 1.81022 15.7548 1.73516 15.7109C1.66009 15.667 1.59816 15.6037 1.5558 15.5278C1.51345 15.4518 1.4922 15.3659 1.49428 15.2789C1.49636 15.192 1.52168 15.1071 1.56762 15.0333L7.3541 5.63841C7.39767 5.56746 7.4587 5.50888 7.53136 5.46823C7.60402 5.42759 7.68588 5.40625 7.76914 5.40625C7.85239 5.40625 7.93425 5.42759 8.00691 5.46823C8.07957 5.50888 8.1406 5.56746 8.18417 5.63841L11.5525 11.099L8.6781 15.7776ZM2.68581 14.8824H8.17388L10.5063 11.1093L7.76228 6.65027L2.68581 14.8824Z" fill="#EB0029"/>
<path d="M22.0162 18.6559H6.79711C6.71013 18.6562 6.62467 18.6332 6.54961 18.5892C6.47455 18.5453 6.41262 18.482 6.37026 18.4061C6.3279 18.3301 6.30665 18.2442 6.30873 18.1572C6.31081 18.0703 6.33614 17.9855 6.38207 17.9116L13.9899 5.56346C14.0343 5.49417 14.0958 5.43754 14.1685 5.39907C14.2413 5.36061 14.3227 5.34161 14.4049 5.34394C14.4883 5.34406 14.5702 5.36556 14.6429 5.4064C14.7156 5.44724 14.7765 5.50604 14.82 5.57718L22.4278 17.9253C22.4738 17.9992 22.4991 18.084 22.5012 18.171C22.5032 18.2579 22.482 18.3438 22.4396 18.4198C22.3973 18.4958 22.3353 18.559 22.2603 18.6029C22.1852 18.6469 22.0998 18.6699 22.0128 18.6697L22.0162 18.6559ZM7.49684 17.7744H21.313L14.4049 6.57876L7.49684 17.7744Z" fill="#1D1D1B"/>
</svg>
