<svg id="Capa_2" data-name="Capa 2" xmlns="http://www.w3.org/2000/svg" viewBox="0 0 69.97 69.97"><defs><style>.cls-1{fill:#010101;}.cls-2{fill:#eb0029;}.cls-3{fill:#fff;}</style></defs><title>Iconos_SPF</title><rect class="cls-1" width="69.97" height="69.97"/><path class="cls-2" d="M34.46,32.71h0a1.58,1.58,0,0,1-1.58-1.58V12.95H36V31.13A1.58,1.58,0,0,1,34.46,32.71Z"/><path class="cls-2" d="M20.72,20.18h0A1.58,1.58,0,0,1,21.38,18l12.26-6.45a1.77,1.77,0,0,1,1.64,0L47.58,18a1.58,1.58,0,0,1,.67,2.14h0a1.58,1.58,0,0,1-2.14.67L34.46,14.74,22.86,20.85A1.58,1.58,0,0,1,20.72,20.18Zm13.1-5.79h0Z"/><path class="cls-3" d="M55.08,51.08,39.51,41.7A1.58,1.58,0,0,1,39,39.52h0A1.58,1.58,0,0,1,41.15,39l15.57,9.38Z"/><path class="cls-3" d="M42.63,57.82h0a1.58,1.58,0,0,1,.53-2.18L54.37,48.8l.76-13.1a1.58,1.58,0,0,1,1.67-1.49h0a1.58,1.58,0,0,1,1.49,1.67l-.8,13.83a1.76,1.76,0,0,1-.84,1.4L44.8,58.35A1.58,1.58,0,0,1,42.63,57.82Z"/><path class="cls-3" d="M14.89,51.08l-1.63-2.71L28.83,39a1.58,1.58,0,0,1,2.17.54h0a1.58,1.58,0,0,1-.54,2.17Z"/><path class="cls-3" d="M27.35,57.82a1.58,1.58,0,0,1-2.18.53L13.33,51.12a1.76,1.76,0,0,1-.84-1.4l-.8-13.83a1.58,1.58,0,0,1,1.49-1.67h0a1.58,1.58,0,0,1,1.67,1.49l.76,13.1,11.22,6.84a1.58,1.58,0,0,1,.53,2.18Z"/></svg>