<svg width="24" height="24" viewBox="0 0 24 24" fill="none" xmlns="http://www.w3.org/2000/svg">
<path d="M11.8193 11.2192C11.6756 11.2192 11.5377 11.1621 11.4361 11.0604C11.3344 10.9588 11.2773 10.821 11.2773 10.6772V4.44141H12.3475V10.6772C12.3476 10.8186 12.2924 10.9544 12.1937 11.0557C12.095 11.1569 11.9606 11.2156 11.8193 11.2192Z" fill="#EB0029"/>
<path d="M7.10828 6.92374C7.07261 6.8601 7.05015 6.78992 7.04225 6.7174C7.03435 6.64487 7.04117 6.5715 7.06231 6.50168C7.08345 6.43185 7.11847 6.36702 7.16527 6.31105C7.21207 6.25509 7.26969 6.20915 7.33467 6.17599L11.5399 3.96361C11.6267 3.91823 11.7232 3.89453 11.8212 3.89453C11.9191 3.89453 12.0156 3.91823 12.1024 3.96361L16.3214 6.17599C16.3848 6.2089 16.4412 6.25405 16.4871 6.30883C16.5331 6.36361 16.5677 6.42694 16.5891 6.49517C16.6104 6.5634 16.6181 6.63518 16.6116 6.70638C16.6051 6.77758 16.5846 6.84679 16.5512 6.91002C16.5183 6.97349 16.4731 7.02982 16.4183 7.07576C16.3636 7.1217 16.3002 7.15635 16.232 7.17772C16.1638 7.19908 16.092 7.20673 16.0208 7.20023C15.9496 7.19372 15.8804 7.1732 15.8172 7.13983L11.8212 5.0578L7.84231 7.15355C7.77908 7.18692 7.70987 7.20744 7.63867 7.21395C7.56747 7.22045 7.49569 7.2128 7.42746 7.19144C7.35923 7.17007 7.2959 7.13542 7.24113 7.08948C7.18635 7.04354 7.1412 6.98721 7.10828 6.92374Z" fill="#EB0029"/>
<path d="M18.8925 17.5209L13.5519 14.3035C13.4912 14.266 13.4386 14.2168 13.3969 14.1589C13.3552 14.101 13.3254 14.0354 13.3092 13.9659C13.2929 13.8965 13.2905 13.8245 13.3022 13.7541C13.3138 13.6837 13.3392 13.6163 13.377 13.5557C13.4521 13.4354 13.5714 13.3493 13.7093 13.316C13.8472 13.2826 13.9927 13.3047 14.1145 13.3774L19.455 16.5947L18.8925 17.5209Z" fill="#1D1D1B"/>
<path d="M14.6212 19.8336C14.5838 19.7727 14.5587 19.7049 14.5476 19.6342C14.5365 19.5636 14.5395 19.4914 14.5564 19.4219C14.5733 19.3524 14.6038 19.2869 14.6461 19.2292C14.6884 19.1716 14.7417 19.1228 14.803 19.0859L18.6481 16.7397L18.9088 12.2464C18.9127 12.1752 18.9307 12.1054 18.9616 12.0412C18.9925 11.9769 19.0359 11.9194 19.0891 11.8719C19.1423 11.8245 19.2044 11.7879 19.2717 11.7645C19.3391 11.7411 19.4104 11.7311 19.4816 11.7353C19.5528 11.7392 19.6225 11.7572 19.6868 11.7881C19.751 11.8191 19.8085 11.8624 19.856 11.9156C19.9035 11.9688 19.94 12.0309 19.9635 12.0983C19.9869 12.1656 19.9968 12.2369 19.9927 12.3081L19.7183 17.0519C19.7126 17.1492 19.6834 17.2438 19.6332 17.3274C19.5831 17.411 19.5134 17.4813 19.4301 17.5321L15.3655 20.0154C15.2427 20.09 15.0953 20.1127 14.9557 20.0786C14.8162 20.0445 14.6958 19.9564 14.6212 19.8336Z" fill="#1D1D1B"/>
<path d="M5.10792 17.522L4.54883 16.5925L9.8894 13.3785C9.95042 13.3418 10.0181 13.3174 10.0885 13.3068C10.159 13.2962 10.2308 13.2996 10.3 13.3168C10.3691 13.334 10.4342 13.3647 10.4914 13.4071C10.5487 13.4494 10.5971 13.5027 10.6337 13.5638C10.6705 13.6248 10.6949 13.6924 10.7055 13.7629C10.716 13.8333 10.7126 13.9052 10.6954 13.9743C10.6782 14.0434 10.6476 14.1085 10.6052 14.1658C10.5628 14.223 10.5096 14.2714 10.4485 14.3081L5.10792 17.522Z" fill="#1D1D1B"/>
<path d="M9.38019 19.8302C9.34323 19.8915 9.29451 19.9448 9.23684 19.9871C9.17917 20.0295 9.11369 20.0599 9.04418 20.0768C8.97466 20.0937 8.90249 20.0967 8.83182 20.0856C8.76115 20.0745 8.69339 20.0494 8.63244 20.012L4.57127 17.5321C4.48802 17.4813 4.41833 17.411 4.36815 17.3274C4.31798 17.2438 4.28881 17.1492 4.28314 17.0519L4.00874 12.3081C4.00457 12.2369 4.01449 12.1656 4.03794 12.0983C4.06138 12.0309 4.09789 11.9688 4.14537 11.9156C4.19285 11.8624 4.25037 11.8191 4.31462 11.7881C4.37888 11.7572 4.44861 11.7392 4.51982 11.7353C4.59101 11.7311 4.66233 11.7411 4.72968 11.7645C4.79704 11.7879 4.8591 11.8245 4.91232 11.8719C4.96553 11.9194 5.00885 11.9769 5.03979 12.0412C5.07074 12.1054 5.08869 12.1752 5.09263 12.2464L5.35332 16.7397L9.20182 19.0859C9.26308 19.1228 9.31641 19.1716 9.35874 19.2292C9.40108 19.2869 9.43157 19.3524 9.44847 19.4219C9.46537 19.4914 9.46834 19.5636 9.45721 19.6342C9.44608 19.7049 9.42107 19.7727 9.38362 19.8336L9.38019 19.8302Z" fill="#1D1D1B"/>
</svg>
