<svg width="24" height="24" viewBox="0 0 24 24" fill="none" xmlns="http://www.w3.org/2000/svg">
<path d="M14.982 20.0934H8.7633L8.6261 20.0008C8.49919 19.915 5.53906 17.8604 5.53906 14.7391C5.53906 12.1665 7.04142 10.7568 8.36885 9.51169C9.69627 8.26659 10.8831 7.15525 10.8831 4.88457C10.8822 4.69778 10.9348 4.51465 11.0348 4.35685C11.1347 4.19905 11.2778 4.07318 11.447 3.99415C11.6163 3.91512 11.8046 3.88624 11.9898 3.91091C12.1749 3.93559 12.3491 4.01279 12.4918 4.13339C14.0709 5.47901 15.4449 7.04827 16.5701 8.79138C17.9044 10.8837 18.5595 12.9074 18.4635 14.6225C18.3468 16.7319 15.4622 19.6132 15.1363 19.9356L14.982 20.0934ZM9.10288 19.0266H14.5429C15.4382 18.1142 17.3247 15.9396 17.4001 14.5676C17.5751 11.3982 14.7144 7.4571 11.9327 5.07322C11.8675 7.68005 10.4543 9.00748 9.08573 10.2903C7.80289 11.4943 6.59209 12.6296 6.59209 14.7494C6.59209 16.9755 8.57465 18.6287 9.10288 19.0266Z" fill="#EB0029"/>
<path d="M13.623 20.0946H10.0455L9.89114 19.9437C9.70592 19.7619 8.06636 18.1189 7.99776 16.8738C7.86741 14.5208 10.0558 12.0306 11.3661 10.9296C11.4797 10.8352 11.6178 10.7751 11.7643 10.7563C11.9107 10.7375 12.0595 10.7608 12.1933 10.8233C12.3271 10.8859 12.4403 10.9852 12.5197 11.1097C12.5992 11.2342 12.6416 11.3787 12.642 11.5264C12.642 12.6652 13.2148 13.2037 13.942 13.8828C14.6692 14.562 15.5679 15.4092 15.5679 16.9218C15.5679 18.7569 13.8528 19.954 13.7637 20.0089L13.623 20.0946ZM10.4845 19.0279H13.28C13.623 18.7638 14.4977 17.9577 14.4977 16.9218C14.4977 15.886 13.9009 15.3097 13.208 14.6614C12.5151 14.0132 11.8017 13.3443 11.6164 12.1301C10.2444 13.4095 8.97532 15.2926 9.06107 16.8155C9.09194 17.3677 9.86713 18.3865 10.488 19.0279H10.4845Z" fill="#1D1D1B"/>
</svg>
