<svg id="Capa_2" data-name="Capa 2" xmlns="http://www.w3.org/2000/svg" viewBox="0 0 69.97 69.97"><defs><style>.cls-1{fill:#010101;}.cls-2{fill:#eb0029;}.cls-3{fill:#fff;}</style></defs><title>Iconos_SPF</title><rect class="cls-1" width="69.97" height="69.97"/><path class="cls-2" d="M24.74,43.48A10.34,10.34,0,0,1,14.41,33.16c0-2.52,1.66-6.62,4.92-12.17,1.47-2.5,2.94-4.74,3.93-6.2a1.82,1.82,0,0,1,.92-.73,1.73,1.73,0,0,1,2,.67c1,1.45,2.48,3.72,4,6.24.92,1.56,1.72,3,2.39,4.36l-2.78,1.39c-.63-1.27-1.4-2.67-2.28-4.17s-1.63-2.68-2.35-3.81a.43.43,0,0,0-.73,0c-.73,1.13-1.55,2.43-2.36,3.82-4.05,6.89-4.49,9.7-4.49,10.59a7.22,7.22,0,0,0,7.21,7.21Z"/><path class="cls-3" d="M39.39,58.58A16.19,16.19,0,0,1,23.22,42.41c0-4,2.71-10.66,8.06-19.75,2.5-4.26,5-8.06,6.68-10.51a1.73,1.73,0,0,1,2.86,0c1.66,2.44,4.17,6.24,6.67,10.49,5.35,9.1,8.07,15.75,8.07,19.77A16.19,16.19,0,0,1,39.39,58.58Zm.37-42.43a.45.45,0,0,0-.74,0c-1.48,2.23-3.27,5-5.06,8.09-6.64,11.28-7.63,16.23-7.63,18.18a13.06,13.06,0,0,0,26.12,0c0-1.95-1-6.9-7.64-18.2C43,21.18,41.24,18.38,39.76,16.15Z"/></svg>