<svg width="24" height="24" viewBox="0 0 24 24" fill="none" xmlns="http://www.w3.org/2000/svg">
<path d="M8.48659 14.9127C7.54774 14.9118 6.64755 14.5387 5.98336 13.8751C5.31917 13.2116 4.94517 12.3118 4.94336 11.3729C4.94336 10.5085 5.51275 9.10222 6.63094 7.19855C7.13516 6.34104 7.63937 5.57271 7.97895 5.07192C8.05357 4.95588 8.16454 4.86783 8.29451 4.82153C8.4182 4.77884 8.55252 4.77823 8.67659 4.8198C8.80065 4.86136 8.90751 4.94276 8.98052 5.05134C9.32352 5.5487 9.83117 6.32732 10.3525 7.19169C10.6681 7.72677 10.9425 8.2207 11.1723 8.68718L10.2188 9.16396C10.0027 8.72834 9.73856 8.24814 9.43671 7.73363C9.13487 7.21913 8.87762 6.81438 8.63065 6.42679C8.61741 6.40552 8.59896 6.38798 8.57706 6.37581C8.55515 6.36365 8.53051 6.35727 8.50546 6.35727C8.4804 6.35727 8.45576 6.36365 8.43386 6.37581C8.41195 6.38798 8.39351 6.40552 8.38026 6.42679C8.12987 6.81438 7.8486 7.26029 7.57077 7.73706C6.1816 10.1004 6.03068 11.0642 6.03068 11.3695C6.03159 12.0251 6.29244 12.6536 6.75603 13.1172C7.21962 13.5808 7.84812 13.8416 8.50374 13.8425L8.48659 14.9127Z" fill="#EB0029"/>
<path d="M13.5112 20.0914C12.0408 20.0895 10.6311 19.5046 9.59135 18.4649C8.55159 17.4251 7.96666 16.0154 7.96484 14.545C7.96484 13.173 8.89439 10.8886 10.7295 7.77065C11.587 6.30946 12.4445 5.00604 13.0207 4.16568C13.0752 4.08574 13.1483 4.02032 13.2338 3.9751C13.3193 3.92989 13.4145 3.90625 13.5112 3.90625C13.6079 3.90625 13.7032 3.92989 13.7887 3.9751C13.8741 4.02032 13.9473 4.08574 14.0017 4.16568C14.5711 5.00261 15.432 6.30603 16.2896 7.76379C18.1246 10.8851 19.0576 13.1661 19.0576 14.545C19.0558 16.0154 18.4708 17.4251 17.4311 18.4649C16.3913 19.5046 14.9817 20.0895 13.5112 20.0914ZM13.6381 5.5377C13.6239 5.51718 13.605 5.50041 13.5829 5.48883C13.5608 5.47725 13.5362 5.4712 13.5112 5.4712C13.4863 5.4712 13.4617 5.47725 13.4396 5.48883C13.4175 5.50041 13.3985 5.51718 13.3843 5.5377C12.8767 6.3026 12.2627 7.25272 11.6487 8.3126C9.37116 12.1817 9.03159 13.8796 9.03159 14.5484C9.03159 15.7365 9.50355 16.8759 10.3436 17.716C11.1837 18.5561 12.3231 19.028 13.5112 19.028C14.6993 19.028 15.8387 18.5561 16.6788 17.716C17.5189 16.8759 17.9909 15.7365 17.9909 14.5484C17.9909 13.8796 17.6479 12.1817 15.3703 8.30574C14.7495 7.26301 14.1458 6.3026 13.6381 5.5377Z" fill="#1D1D1B"/>
</svg>
