<svg id="Capa_2" data-name="Capa 2" xmlns="http://www.w3.org/2000/svg" viewBox="0 0 69.97 69.97"><defs><style>.cls-1{fill:#010101;}.cls-2{fill:#eb0029;}.cls-3{fill:#fff;}</style></defs><title>Iconos_SPF</title><rect class="cls-1" width="69.97" height="69.97"/><path class="cls-2" d="M43.68,58.58H25.55l-.4-.27c-.37-.25-9-6.24-9-15.34,0-7.5,4.38-11.61,8.25-15.24s7.33-6.87,7.33-13.49a2.85,2.85,0,0,1,4.69-2.19A62.06,62.06,0,0,1,48.31,25.63c3.89,6.1,5.8,12,5.52,17-.34,6.15-8.75,14.55-9.7,15.49ZM26.54,55.47H42.4c2.61-2.66,8.11-9,8.33-13,.51-9.24-7.83-20.73-15.94-27.68-.19,7.6-4.31,11.47-8.3,15.21-3.74,3.51-7.27,6.82-7.27,13C19.22,49.49,25,54.31,26.54,55.47Z"/><path class="cls-3" d="M39.72,58.58H29.29l-.45-.44c-.54-.53-5.32-5.32-5.52-8.95-.38-6.86,6-14.12,9.82-17.33a2.27,2.27,0,0,1,3.72,1.74c0,3.32,1.67,4.89,3.79,6.87s4.74,4.45,4.74,8.86c0,5.35-5,8.84-5.26,9Zm-9.15-3.11h8.15c1-.77,3.55-3.12,3.55-6.14s-1.74-4.7-3.76-6.59-4.1-3.84-4.64-7.38c-4,3.73-7.7,9.22-7.45,13.66C26.51,50.63,28.77,53.6,30.58,55.47Z"/></svg>