<svg width="18" height="12" viewBox="0 0 18 12" fill="none" xmlns="http://www.w3.org/2000/svg">
<path fill-rule="evenodd" clip-rule="evenodd" d="M0 0.984615C0 1.52615 0.45 1.96923 1 1.96923H17C17.55 1.96923 18 1.52615 18 0.984615C18 0.443077 17.55 0 17 0H1C0.45 0 0 0.443077 0 0.984615ZM8 11.8154H10C10.55 11.8154 11 11.3723 11 10.8308C11 10.2892 10.55 9.84615 10 9.84615H8C7.45 9.84615 7 10.2892 7 10.8308C7 11.3723 7.45 11.8154 8 11.8154ZM14 6.89231H4C3.45 6.89231 3 6.44923 3 5.90769C3 5.36615 3.45 4.92308 4 4.92308H14C14.55 4.92308 15 5.36615 15 5.90769C15 6.44923 14.55 6.89231 14 6.89231Z" fill="#6E788F"/>
</svg>
