<svg width="13" height="15" viewBox="0 0 13 15" fill="none" xmlns="http://www.w3.org/2000/svg">
<path d="M10.4286 5H2.57143C1.70355 5 1 5.67157 1 6.5V12.5C1 13.3284 1.70355 14 2.57143 14H10.4286C11.2964 14 12 13.3284 12 12.5V6.5C12 5.67157 11.2964 5 10.4286 5Z" stroke="#6E788F" stroke-width="1.5" stroke-linecap="round"/>
<path d="M3 5V4.2C3 2.43269 4.567 1 6.5 1C8.43296 1 10 2.43269 10 4.2V5" stroke="#6E788F" stroke-width="1.5" stroke-linecap="round"/>
<path d="M6.5 11C7.32843 11 8 10.3284 8 9.5C8 8.67157 7.32843 8 6.5 8C5.67157 8 5 8.67157 5 9.5C5 10.3284 5.67157 11 6.5 11Z" fill="#6E788F"/>
</svg>
