<svg width="138" height="22" viewBox="0 0 138 22" fill="none" xmlns="http://www.w3.org/2000/svg">
<path d="M0.399477 13.1561C0.86468 13.2127 2.10731 13.2693 3.13762 13.2693C3.60283 13.2693 4.31156 13.1907 4.42396 12.4553L4.5145 11.8959C4.59256 11.371 4.55821 11.0158 3.84948 11.0158H2.57563C0.702328 11.0158 0.70233 9.65499 0.802239 8.92899L0.924004 8.115C1.1769 6.41785 2.23219 6.14127 3.44047 6.16327C4.41949 6.16928 5.39542 6.27458 6.35346 6.47756L6.19735 7.49271C5.57292 7.47071 3.77142 7.39213 3.5154 7.39213C2.76296 7.35756 2.32898 7.45814 2.19785 8.31928L2.11979 8.84414C1.97617 9.73671 2.36332 9.73671 2.95029 9.73671H4.24599C5.71966 9.73671 5.93197 10.909 5.80708 11.811L5.71966 12.559C5.51984 14.3881 4.08988 14.5013 3.11577 14.5013C2.1531 14.5186 1.19214 14.413 0.255859 14.187L0.399477 13.1561Z" fill="#171619"/>
<path d="M11.084 6.17285C13.001 6.17285 14.2749 6.73227 13.7098 10.4691C13.154 14.074 11.8708 14.4417 9.91946 14.4417C8.04616 14.4417 6.69426 13.986 7.28123 10.268C7.88068 6.43999 9.16702 6.17285 11.084 6.17285ZM10.0412 13.2223C11.3931 13.2223 12.0488 12.776 12.4234 10.3654C12.8668 7.53685 12.2018 7.38599 10.9591 7.38599C9.66344 7.38599 9.00778 7.49599 8.56444 10.3654C8.18041 12.8326 8.58005 13.2223 10.0412 13.2223Z" fill="#171619"/>
<path d="M15.7802 6.22559H17.0541L16.0456 12.5962C15.9582 13.187 16.3328 13.1776 16.67 13.1776H19.6704L19.4831 14.3939H16.1018C15.2713 14.3939 14.5407 13.9916 14.7156 12.8759L15.7802 6.22559Z" fill="#171619"/>
<path d="M24.5684 6.17285C26.4854 6.17285 27.7593 6.73227 27.1942 10.4691C26.6384 14.074 25.3552 14.4417 23.4038 14.4417C21.5305 14.4417 20.1786 13.986 20.7656 10.268C21.3651 6.43999 22.6514 6.17285 24.5684 6.17285ZM23.5256 13.2223C24.8775 13.2223 25.5332 12.776 25.9078 10.3654C26.3512 7.53685 25.6861 7.38599 24.4435 7.38599C23.1478 7.38599 22.4922 7.49599 22.0488 10.3654C21.6648 12.8326 22.0644 13.2223 23.5256 13.2223Z" fill="#171619"/>
<path d="M53.1559 6.22559H56.5465C57.6768 6.22559 59.0068 6.85416 58.629 9.20502C58.22 11.8262 56.6995 11.7193 55.6911 11.625C55.2824 11.5875 54.878 11.5128 54.4828 11.4019L54.0145 14.3939H51.8633L53.1559 6.22559ZM55.7598 9.79588C56.1813 9.79588 56.3842 9.48158 56.4685 8.9033C56.5528 8.32501 56.4248 8.06731 56.0345 8.06731H55.0167L54.7388 9.79588H55.7598Z" fill="#171619"/>
<path d="M59.7146 8.01073C59.9706 6.40473 61.0883 6.22559 62.0749 6.22559C63.2002 6.22501 64.3248 6.28481 65.4437 6.40474L65.1565 8.22445H62.4184C61.8408 8.22445 61.7939 8.53874 61.7533 8.85302L61.6878 9.2993L64.4134 9.42188L64.1262 11.2164L61.3662 11.317L61.2756 11.8513C61.1757 12.4422 61.5535 12.4327 61.8751 12.4327H64.5008L64.2136 14.2399C63.0397 14.397 60.8885 14.4285 60.8885 14.4285C60.0674 14.4504 58.7498 14.1707 59.0152 12.4642L59.7146 8.01073Z" fill="#171619"/>
<path d="M66.5031 6.22559H69.9063C71.3456 6.22559 72.301 7.09616 71.9794 9.12645C71.6672 11.0687 70.8492 11.2353 70.3933 11.3013L71.5236 14.3907H69.0758L68.2453 11.3893L67.8457 11.3453L67.368 14.3907H65.2168L66.5031 6.22559ZM69.0758 9.7173C69.6409 9.7173 69.7283 9.42816 69.8189 8.84673C69.8969 8.35644 69.8189 8.06731 69.3412 8.06731H68.3764L68.111 9.7173H69.0758Z" fill="#171619"/>
<path d="M73.0597 8.23388C73.3157 6.62788 74.4459 6.22559 75.4419 6.22559C76.5672 6.22501 77.6917 6.28481 78.8107 6.40474L78.5329 8.22445H75.7947C75.2171 8.22445 75.1703 8.53874 75.1172 8.85302L75.0391 9.34331L77.7773 9.46588L77.4994 11.2636L74.7175 11.3642L74.2399 14.4002H72.0918L73.0597 8.23388Z" fill="#171619"/>
<path d="M83.0497 6.16895C84.9667 6.16895 86.353 6.81637 85.7535 10.6412C85.1884 14.2461 83.7491 14.4347 81.754 14.4347C79.7589 14.4347 78.4507 13.8061 79.0377 10.0849C79.6153 6.26009 81.1764 6.16895 83.0497 6.16895ZM82.0537 12.4955C83.006 12.4955 83.3276 12.0932 83.6148 10.3647C83.927 8.47895 83.7709 8.11123 82.7625 8.11123C81.754 8.11123 81.5136 8.36895 81.2014 10.3647C80.911 12.0712 80.9547 12.4955 82.0412 12.4955H82.0537Z" fill="#171619"/>
<path d="M87.4211 6.22559H90.8243C92.2636 6.22559 93.219 7.09616 92.8974 9.12645C92.5852 11.0687 91.7671 11.2353 91.3113 11.3013L92.4415 14.3907H89.9938L89.1633 11.3893L88.7636 11.3453L88.2859 14.3907H86.1348L87.4211 6.22559ZM89.9938 9.7173C90.5589 9.7173 90.6463 9.42816 90.7368 8.84673C90.8149 8.35644 90.7368 8.06731 90.2591 8.06731H89.2944L89.029 9.7173H89.9938Z" fill="#171619"/>
<path d="M95.0512 6.22559H98.036L98.0016 10.811L99.3972 6.22559H102.444L102.035 14.397H99.9186L100.14 9.94673L98.7447 14.397H96.2282V9.94673L95.0761 14.397H92.8906L95.0512 6.22559Z" fill="#171619"/>
<path d="M106.563 6.22559H109.101L110.275 14.397H108.067L107.833 12.9702H105.751L105.126 14.397H102.744L106.563 6.22559ZM107.693 11.1222L107.437 8.92216L106.528 11.1222H107.693Z" fill="#171619"/>
<path d="M112.398 6.22559H114.583L116.247 10.4527L116.9 6.22559H119.051L117.765 14.397H115.614L113.931 10.2799L113.287 14.397H111.127L112.398 6.22559Z" fill="#171619"/>
<path d="M122.83 6.1377C124.425 6.1377 124.79 6.2257 125.69 6.58399L125.424 8.26855C124.687 8.14997 123.942 8.08693 123.195 8.07998C122.258 8.07998 121.877 8.03598 121.522 10.3114C121.234 12.1406 121.378 12.5114 122.496 12.5114C123.613 12.5114 124.769 12.4108 124.769 12.4108L124.503 14.0954C123.773 14.3846 123.161 14.4851 121.522 14.4537C119.483 14.4191 118.949 12.6811 119.37 9.93426C119.77 7.34141 120.625 6.1377 122.83 6.1377Z" fill="#171619"/>
<path d="M126.352 8.01073C126.608 6.40473 127.725 6.22559 128.712 6.22559C129.837 6.22499 130.962 6.28479 132.081 6.40474L131.794 8.22445H129.055C128.478 8.22445 128.431 8.53874 128.39 8.85302L128.325 9.2993L131.051 9.42188L130.763 11.2164L128.01 11.3139L127.922 11.8482C127.822 12.439 128.2 12.4296 128.522 12.4296H131.132L130.844 14.2367C129.671 14.3939 127.519 14.4253 127.519 14.4253C126.698 14.4473 125.381 14.1676 125.646 12.461L126.352 8.01073Z" fill="#171619"/>
<path d="M135.565 10.4844H136.752C137.788 10.4844 137.835 11.5718 137.688 12.4895C137.501 13.7027 136.977 14.3469 136.183 14.3469H134.994C133.982 14.3469 133.789 13.2438 133.929 12.3481C134.085 11.3612 134.454 10.4844 135.565 10.4844ZM135.041 13.8944H136.215C136.655 13.8944 137.048 13.4827 137.217 12.4047C137.317 11.7761 137.401 10.9369 136.714 10.9369H135.503C135.038 10.9369 134.601 11.2072 134.413 12.4047C134.285 13.1998 134.444 13.8944 135.041 13.8944ZM135.188 11.289H136.146C136.458 11.289 136.817 11.4272 136.733 12.0055C136.664 12.5272 136.44 12.6341 136.215 12.6812L136.527 13.5424H136.009L135.696 12.7032L135.434 12.6404L135.294 13.5424H134.813L135.188 11.289ZM135.906 12.2915C136.177 12.2915 136.218 12.2507 136.258 11.9961C136.299 11.7415 136.18 11.7415 135.99 11.7415H135.597L135.506 12.2915H135.906Z" fill="#171619"/>
<path d="M35.3984 11.7135C35.2171 11.7135 35.0394 11.6629 34.8849 11.5674C34.7305 11.4718 34.6054 11.335 34.5236 11.1722C34.4417 11.0094 34.4063 10.8269 34.4213 10.645C34.4363 10.4632 34.5011 10.2891 34.6085 10.1421L41.5241 0.62863C41.6591 0.445818 41.8527 0.315637 42.0722 0.260173C42.2917 0.204708 42.5234 0.227376 42.7282 0.324329C42.933 0.421281 43.0981 0.586545 43.1956 0.792093C43.2931 0.997642 43.317 1.23081 43.2631 1.45206L41.6771 7.78178H48.7363C48.8695 7.7742 49.0028 7.79407 49.1281 7.84016C49.2534 7.88625 49.368 7.9576 49.465 8.04983C49.5619 8.14207 49.6392 8.25325 49.692 8.37658C49.7448 8.4999 49.772 8.63277 49.772 8.76706C49.772 8.90134 49.7448 9.03422 49.692 9.15754C49.6392 9.28087 49.5619 9.39205 49.465 9.48429C49.368 9.57652 49.2534 9.64787 49.1281 9.69396C49.0028 9.74005 48.8695 9.75992 48.7363 9.75234H40.4282C40.2805 9.75014 40.1352 9.71436 40.0032 9.64768C39.8711 9.58101 39.7557 9.48516 39.6657 9.36729C39.5756 9.24943 39.5132 9.11259 39.483 8.96702C39.4529 8.82145 39.4558 8.67091 39.4916 8.52663L40.1566 5.86778L36.1883 11.3143C36.0969 11.4385 35.9778 11.5393 35.8406 11.6086C35.7034 11.6779 35.5519 11.7139 35.3984 11.7135Z" fill="#C9002C"/>
<path d="M36.688 21.7642C36.5401 21.7626 36.3945 21.7272 36.2621 21.6607C36.1298 21.5942 36.0141 21.4983 35.924 21.3803C35.8338 21.2623 35.7714 21.1252 35.7415 20.9794C35.7116 20.8335 35.715 20.6828 35.7514 20.5385L37.3374 14.2087H30.2844C30.0344 14.1945 29.7992 14.0845 29.6272 13.9013C29.4552 13.7181 29.3594 13.4756 29.3594 13.2235C29.3594 12.9714 29.4552 12.7288 29.6272 12.5456C29.7992 12.3624 30.0344 12.2524 30.2844 12.2382H38.5925C38.7402 12.2404 38.8855 12.2762 39.0176 12.3428C39.1496 12.4095 39.265 12.5054 39.3551 12.6232C39.4451 12.7411 39.5076 12.8779 39.5377 13.0235C39.5679 13.1691 39.565 13.3196 39.5292 13.4639L38.8642 16.1227L42.8231 10.6856C42.8967 10.575 42.9918 10.4806 43.1026 10.4079C43.2134 10.3353 43.3377 10.286 43.4679 10.2629C43.5981 10.2399 43.7317 10.2436 43.8604 10.2739C43.9892 10.3042 44.1106 10.3603 44.2172 10.439C44.3239 10.5178 44.4136 10.6174 44.481 10.7319C44.5484 10.8464 44.5921 10.9735 44.6094 11.1054C44.6268 11.2374 44.6174 11.3715 44.5819 11.4998C44.5464 11.628 44.4855 11.7477 44.4029 11.8516L37.4654 21.3713C37.3746 21.4926 37.2572 21.5912 37.1224 21.6593C36.9875 21.7274 36.8389 21.7633 36.688 21.7642Z" fill="#C9002C"/>
</svg>
